<?xml version="1.0" encoding="UTF-8" standalone="no"?>
<!-- Created with Inkscape (http://www.inkscape.org/) -->

<svg
   version="1.1"
   id="svg2"
   xml:space="preserve"
   width="793.33331"
   height="1122.6667"
   viewBox="0 0 793.33331 1122.6667"
   sodipodi:docname="logo.svg"
   inkscape:version="1.1 (c68e22c387, 2021-05-23)"
   xmlns:inkscape="http://www.inkscape.org/namespaces/inkscape"
   xmlns:sodipodi="http://sodipodi.sourceforge.net/DTD/sodipodi-0.dtd"
   xmlns="http://www.w3.org/2000/svg"
   xmlns:svg="http://www.w3.org/2000/svg"><defs
     id="defs6"><clipPath
       clipPathUnits="userSpaceOnUse"
       id="clipPath16"><path
         d="M 0,0 H 595.3 V 842 H 0 Z"
         clip-rule="evenodd"
         id="path14" /></clipPath></defs><sodipodi:namedview
     id="namedview4"
     pagecolor="#ffffff"
     bordercolor="#666666"
     borderopacity="1.0"
     inkscape:pageshadow="2"
     inkscape:pageopacity="0.0"
     inkscape:pagecheckerboard="0"
     showgrid="false"
     inkscape:zoom="0.746437"
     inkscape:cx="397.22039"
     inkscape:cy="240.47575"
     inkscape:window-width="1920"
     inkscape:window-height="1001"
     inkscape:window-x="-9"
     inkscape:window-y="-9"
     inkscape:window-maximized="1"
     inkscape:current-layer="g8" /><g
     id="g8"
     inkscape:groupmode="layer"
     inkscape:label="logo"
     transform="matrix(1.3333333,0,0,-1.3333333,0,1122.6667)"><g
       id="g1546"
       transform="translate(-48.229122,138.65872)"><path
         d="m 194.4,681.6 h 0.1 l 18.9,-2.4 0.1,-0.1 8.7,-1.7 v 0 l 8.2,-2.1 h 0.1 l 7.6,-2.4 0.1,-0.1 7,-2.7 h 0.1 l 6.3,-3 0.1,-0.1 5.6,-3.2 0.1,-0.1 4.9,-3.5 0.1,-0.1 4.1,-3.7 0.2,-0.2 3.2,-3.9 0.1,-0.2 1.3,-2 0.1,-0.1 1.1,-2.1 v -0.1 l 0.9,-2.2 v -0.1 l 0.7,-2.2 v -0.1 l 0.4,-2.2 v -0.2 l 0.1,-2.2 v -0.2 l -0.1,-2.2 V 636 l -0.4,-2.2 v -0.1 l -0.7,-2.2 v -0.1 l -0.9,-2.2 v -0.1 l -1.1,-2.1 -0.1,-0.1 -1.3,-2 -0.1,-0.2 -3.2,-3.9 -0.2,-0.2 -4.1,-3.7 -0.1,-0.1 -4.9,-3.5 -0.1,-0.1 -5.6,-3.2 -0.1,-0.1 -6.3,-3 h -0.1 l -7,-2.7 -0.1,-0.1 -7.6,-2.4 h -0.1 l -8.2,-2.1 v 0 l -8.7,-1.7 -0.1,-0.1 -18.9,-2.4 h -0.1 L 174,594.6 h -0.1 l -20.4,0.8 h -0.1 l -18.8,2.4 -0.2,0.1 -8.7,1.7 v 0 l -8.2,2.1 h -0.1 l -7.6,2.4 -0.1,0.1 -6.9,2.7 h -0.1 l -6.4,3 -0.1,0.1 -5.6,3.2 -0.1,0.1 -4.9,3.5 -0.1,0.1 -4.1,3.7 -0.2,0.2 -3.2,3.9 -0.1,0.2 -1.3,2 -0.1,0.1 -1,2.1 -0.1,0.1 -0.8,2.2 -0.1,0.1 -0.6,2.2 -0.1,0.1 -0.3,2.2 -0.1,0.2 -0.1,2.2 v 0.2 l 0.1,2.2 0.1,0.2 0.3,2.2 0.1,0.1 0.6,2.2 0.1,0.1 0.8,2.2 0.1,0.1 1,2.1 0.1,0.1 1.3,2 0.1,0.2 3.2,3.9 0.2,0.2 4.1,3.7 0.1,0.1 4.9,3.5 0.1,0.1 5.6,3.2 0.1,0.1 6.4,3 h 0.1 l 6.9,2.7 0.1,0.1 7.6,2.4 h 0.1 l 8.2,2.1 v 0 l 8.7,1.7 0.2,0.1 18.8,2.4 h 0.1 l 20.4,0.8 h 0.1 z m -21.1,-2.5 c -48.4,0 -85.5,-17.3 -85.5,-40.1 0,-22.8 37.1,-40.2 85.5,-40.2 48.5,0 85.6,17.4 85.6,40.2 0,22.8 -37.1,40.1 -85.6,40.1 z"
         style="fill:#99cc99;fill-opacity:1;fill-rule:evenodd;stroke:none"
         id="path82" /><path
         d="M 124.4,638.5 H 74.7 V 681 H 174 v -42.5 z"
         style="fill:#99cc99;fill-opacity:1;fill-rule:evenodd;stroke:none"
         id="path84" /><g
         id="g86"><path
           d="M 124.4,638.5 H 74.7 V 681 H 174 v -42.5 z"
           style="fill:none;stroke:#99cc99;stroke-width:2.83;stroke-linecap:butt;stroke-linejoin:round;stroke-miterlimit:10;stroke-dasharray:none;stroke-opacity:1"
           id="path88" /></g><path
         d="M 223.6,596 H 174 v 42.5 h 99.2 V 596 Z"
         style="fill:#99cc99;fill-opacity:1;fill-rule:evenodd;stroke:none"
         id="path90" /><g
         id="g92"><path
           d="M 223.6,596 H 174 v 42.5 h 99.2 V 596 Z"
           style="fill:none;stroke:#99cc99;stroke-width:2.83;stroke-linecap:butt;stroke-linejoin:round;stroke-miterlimit:10;stroke-dasharray:none;stroke-opacity:1"
           id="path94" /></g><g
         id="g96"><text
           transform="matrix(1,0,0,-1,78,645.3)"
           style="font-variant:normal;font-weight:bold;font-size:40px;font-family:Arial;-inkscape-font-specification:ArialNarrow-Bold;writing-mode:lr-tb;fill:#336633;fill-opacity:1;fill-rule:nonzero;stroke:none"
           id="text100"><tspan
             x="0 23.719999 47.32 66.720001"
             y="0"
             sodipodi:role="line"
             id="tspan98">AUTO</tspan></text></g><g
         id="g102"><text
           transform="matrix(1,0,0,-1,188.2,603.3)"
           style="font-variant:normal;font-weight:bold;font-size:40px;font-family:Arial;-inkscape-font-specification:ArialNarrow-Bold;writing-mode:lr-tb;fill:#336633;fill-opacity:1;fill-rule:nonzero;stroke:none"
           id="text106"><tspan
             x="0 21.799999 45.52"
             y="0"
             sodipodi:role="line"
             id="tspan104">ERA</tspan></text></g><path
         d="m 162.2,644.1 c -2.6,0 -5.1,-2.5 -5.1,-5.1 v 0 c 0,-2.6 2.5,-5.2 5.1,-5.2 h 23.3 c 2.6,0 5.2,2.6 5.2,5.2 v 0 c 0,2.6 -2.6,5.1 -5.2,5.1 z"
         style="fill:#ff0000;fill-opacity:1;fill-rule:evenodd;stroke:none"
         id="path114" /><g
         id="g116"><path
           d="m 162.2,644.1 c -2.6,0 -5.1,-2.5 -5.1,-5.1 v 0 c 0,-2.6 2.5,-5.2 5.1,-5.2 h 23.3 c 2.6,0 5.2,2.6 5.2,5.2 v 0 c 0,2.6 -2.6,5.1 -5.2,5.1 z"
           style="fill:none;stroke:#ff0000;stroke-width:0.75;stroke-linecap:butt;stroke-linejoin:round;stroke-miterlimit:10;stroke-dasharray:none;stroke-opacity:1"
           id="path118" /></g></g></g></svg>
